nColumns=19
nRows=94
DataType=double
version=3
OpenSimVersion=4.1
endheader
time	ground_force_1_vx	ground_force_1_vy	ground_force_1_vz	ground_force_1_px	ground_force_1_py	ground_force_1_pz	ground_force_1_mx	ground_force_1_my	ground_force_1_mz	ground_force_2_vx	ground_force_2_vy	ground_force_2_vz	ground_force_2_px	ground_force_2_py	ground_force_2_pz	ground_force_2_mx	ground_force_2_my	ground_force_2_mz
0	-18.0798	204.308	16.7451	0.082022	0.006	-0.227962	0	-0.471719	0	0	0	0	0.722596	0	-0.252195	0	0	0
0.01	-31.4275	219.415	16.6459	0.0833825	0.006	-0.229031	0	-0.501879	0	0	0	0	0.722596	0	-0.252195	0	0	0
0.02	-52.8401	259.064	19.3567	0.0871666	0.006	-0.231486	0	-0.174282	0	0	0	0	0.722596	0	-0.252195	0	0	0
0.03	-65.4746	303.25	23.0109	0.0913416	0.006	-0.232382	0	0.788111	0	0	0	0	0.722596	0	-0.252195	0	0	0
0.04	-81.1484	346.156	22.5223	0.0974409	0.006	-0.231432	0	1.75277	0	0	0	0	0.722596	0	-0.252195	0	0	0
0.05	-100.881	402.62	15.8182	0.106688	0.006	-0.228446	0	1.74243	0	0	0	0	0.722596	0	-0.252195	0	0	0
0.06	-121.847	473.454	1.29677	0.117743	0.006	-0.224117	0	0.812384	0	0	0	0	0.722596	0	-0.252195	0	0	0
0.07	-138.672	534.622	-11.0978	0.126894	0.006	-0.220894	0	0.399315	0	0	0	0	0.722596	0	-0.252195	0	0	0
0.08	-147.211	573.469	-17.0109	0.133269	0.006	-0.219058	0	0.717236	0	0	0	0	0.722596	0	-0.252195	0	0	0
0.09	-151.333	602.987	-23.3058	0.138242	0.006	-0.21744	0	0.877121	0	0	0	0	0.722596	0	-0.252195	0	0	0
0.1	-153.125	633.676	-31.1248	0.142129	0.006	-0.215913	0	0.788807	0	0	0	0	0.722596	0	-0.252195	0	0	0
0.11	-152.013	662.069	-35.6399	0.144914	0.006	-0.21494	0	0.899446	0	0	0	0	0.722596	0	-0.252195	0	0	0
0.12	-148.256	686.625	-37.1211	0.147005	0.006	-0.214351	0	1.10244	0	0	0	0	0.722596	0	-0.252195	0	0	0
0.13	-142.9	707.808	-38.6371	0.148868	0.006	-0.213767	0	1.1238	0	0	0	0	0.722596	0	-0.252195	0	0	0
0.14	-136.224	722.783	-39.269	0.150666	0.006	-0.213219	0	1.06442	0	0	0	0	0.722596	0	-0.252195	0	0	0
0.15	-127.927	727.984	-37.7365	0.15267	0.006	-0.212663	0	1.0602	0	0	0	0	0.722596	0	-0.252195	0	0	0
0.16	-119.486	723.6	-36.0508	0.15522	0.006	-0.2119	0	0.96486	0	0	0	0	0.722596	0	-0.252195	0	0	0
0.17	-110.603	710.268	-34.4402	0.158087	0.006	-0.210976	0	0.807987	0	0	0	0	0.722596	0	-0.252195	0	0	0
0.18	-101.384	689.568	-32.9209	0.160997	0.006	-0.209869	0	0.630325	0	0	0	0	0.722596	0	-0.252195	0	0	0
0.19	-92.1998	663.779	-31.4988	0.163938	0.006	-0.208524	0	0.429812	0	0	0	0	0.722596	0	-0.252195	0	0	0
0.2	-82.9844	634.314	-30.4862	0.166746	0.006	-0.206983	0	0.195526	0	0	0	0	0.722596	0	-0.252195	0	0	0
0.21	-73.9426	603.815	-29.7662	0.169453	0.006	-0.205265	0	0.0121321	0	0	0	0	0.722596	0	-0.252195	0	0	0
0.22	-65.3466	573.559	-28.9166	0.172125	0.006	-0.203494	0	-0.0852067	0	0	0	0	0.722596	0	-0.252195	0	0	0
0.23	-57.0253	545.203	-27.7988	0.174701	0.006	-0.201791	0	-0.149645	0	0	0	0	0.722596	0	-0.252195	0	0	0
0.24	-48.9941	520.302	-26.6596	0.177379	0.006	-0.20018	0	-0.215272	0	0	0	0	0.722596	0	-0.252195	0	0	0
0.25	-41.7497	499.232	-25.5241	0.180155	0.006	-0.198541	0	-0.280129	0	0	0	0	0.722596	0	-0.252195	0	0	0
0.26	-35.9204	482.188	-24.5598	0.183194	0.006	-0.196809	0	-0.346006	0	0	0	0	0.722596	0	-0.252195	0	0	0
0.27	-31.6416	469.037	-23.8951	0.186679	0.006	-0.194969	0	-0.396343	0	0	0	0	0.722596	0	-0.252195	0	0	0
0.28	-28.4757	459.233	-23.5242	0.190578	0.006	-0.193085	0	-0.478788	0	0	0	0	0.722596	0	-0.252195	0	0	0
0.29	-26.1173	452.181	-23.4672	0.194576	0.006	-0.191252	0	-0.583065	0	0	0	0	0.722596	0	-0.252195	0	0	0
0.3	-24.4299	447.759	-23.6542	0.198526	0.006	-0.189576	0	-0.689845	0	0	0	0	0.722596	0	-0.252195	0	0	0
0.31	-23.1301	446.354	-23.7752	0.2026	0.006	-0.188046	0	-0.778979	0	0	0	0	0.722596	0	-0.252195	0	0	0
0.32	-21.9629	447.538	-23.7938	0.206205	0.006	-0.186715	0	-0.884327	0	0	0	0	0.722596	0	-0.252195	0	0	0
0.33	-20.6836	451.355	-23.6778	0.209172	0.006	-0.185694	0	-1.04303	0	0	0	0	0.722596	0	-0.252195	0	0	0
0.34	-18.9689	457.006	-23.4251	0.211663	0.006	-0.184976	0	-1.20314	0	0	0	0	0.722596	0	-0.252195	0	0	0
0.35	-16.7233	463.336	-23.2144	0.213557	0.006	-0.184425	0	-1.35061	0	0	0	0	0.722596	0	-0.252195	0	0	0
0.36	-13.748	471.236	-23.1355	0.215118	0.006	-0.184063	0	-1.53317	0	0	0	0	0.722596	0	-0.252195	0	0	0
0.37	-9.72072	481.914	-23.4683	0.216383	0.006	-0.183951	0	-1.7638	0	0	0	0	0.722596	0	-0.252195	0	0	0
0.38	-4.60611	495.156	-24.2476	0.217475	0.006	-0.183921	0	-1.98524	0	0	0	0	0.722596	0	-0.252195	0	0	0
0.39	0.999288	509.873	-25.4456	0.218539	0.006	-0.183845	0	-2.25175	0	0	0	0	0.722596	0	-0.252195	0	0	0
0.4	6.74167	525.542	-27.0602	0.219666	0.006	-0.183814	0	-2.57272	0	0	0	0	0.722596	0	-0.252195	0	0	0
0.41	12.8186	542.483	-28.7362	0.221187	0.006	-0.183891	0	-2.90001	0	0	0	0	0.722596	0	-0.252195	0	0	0
0.42	18.8784	560.698	-30.1259	0.22329	0.006	-0.184063	0	-3.22427	0	0	0	0	0.722596	0	-0.252195	0	0	0
0.43	25.1475	580.592	-30.9383	0.225766	0.006	-0.18429	0	-3.60572	0	0	0	0	0.722596	0	-0.252195	0	0	0
0.44	32.0778	602.012	-31.2554	0.228722	0.006	-0.184575	0	-3.96628	0	0	0	0	0.722596	0	-0.252195	0	0	0
0.45	39.488	623.513	-31.4614	0.232136	0.006	-0.184782	0	-4.22515	0	0	0	0	0.722596	0	-0.252195	0	0	0
0.46	46.8194	643.179	-31.8312	0.236022	0.006	-0.184785	0	-4.35474	0	0	0	0	0.722596	0	-0.252195	0	0	0
0.47	53.6125	660.171	-32.3344	0.240234	0.006	-0.184694	0	-4.37176	0	0	0	0	0.722596	0	-0.252195	0	0	0
0.48	59.5346	674.568	-32.7921	0.244705	0.006	-0.184449	0	-4.23134	0	0	0	0	0.722596	0	-0.252195	0	0	0
0.49	64.8399	686.664	-33.0256	0.249221	0.006	-0.184087	0	-3.96151	0	0	0	0	0.722596	0	-0.252195	0	0	0
0.5	70.1705	695.3	-32.5811	0.25368	0.006	-0.183659	0	-3.65388	0	0	0	0	0.722596	0	-0.252195	0	0	0
0.51	75.5153	699.465	-31.8018	0.257998	0.006	-0.183222	0	-3.31546	0	0	0	0	0.722596	0	-0.252195	0	0	0
0.52	81.4535	699.438	-31.0055	0.262107	0.006	-0.182876	0	-2.94144	0	0	0	0	0.722596	0	-0.252195	0	0	0
0.53	88.4429	695.939	-29.9608	0.265974	0.006	-0.182668	0	-2.60354	0	1.21506	17.4861	-0.407124	0.725407	0.0033	-0.254242	0	0.337783	0
0.54	95.5695	688.707	-28.8498	0.269539	0.006	-0.18254	0	-2.26053	0	12.3794	73.2094	-2.57216	0.742892	0.006	-0.264739	0	0.833244	0
0.55	102.473	676.44	-27.6505	0.272914	0.006	-0.182437	0	-1.83835	0	12.8906	115.8	-7.31111	0.749511	0.006	-0.264417	0	1.08573	0
0.56	110.208	658.006	-25.5321	0.276181	0.006	-0.182412	0	-1.39799	0	2.00702	140.996	-13.5725	0.753319	0.006	-0.260801	0	1.04587	0
0.57	118	633.532	-21.7659	0.279377	0.006	-0.182574	0	-1.08466	0	-4.57605	165.171	-19.9673	0.75848	0.006	-0.257882	0	0.661596	0
0.58	123.8	603.224	-16.8072	0.282569	0.006	-0.182841	0	-0.892514	0	-12.5172	189.673	-25.0787	0.76782	0.006	-0.257147	0	0.170527	0
0.59	128.373	566.012	-11.5182	0.285889	0.006	-0.183081	0	-0.724281	0	-29.28	226.254	-27.4608	0.783637	0.006	-0.258553	0	0.0174252	0
0.6	132.635	520.977	-6.0398	0.289177	0.006	-0.183155	0	-0.537963	0	-51.2812	278.079	-25.423	0.798945	0.006	-0.260978	0	0.334974	0
0.61	132.851	467.794	-0.768851	0.29275	0.006	-0.182902	0	-0.349526	0	-67.542	329.368	-20.5353	0.808837	0.006	-0.263368	0	0.639804	0
0.62	126.954	405.043	3.08423	0.296962	0.006	-0.182076	0	-0.0588558	0	-76.9961	368.661	-15.4169	0.815263	0.006	-0.265257	0	0.59259	0
0.63	116.93	332.544	5.86997	0.301809	0.006	-0.180697	0	0.139515	0	-85.6195	400.243	-10.0078	0.820247	0.006	-0.267026	0	0.341624	0
0.64	99.6184	257.322	7.38997	0.308031	0.006	-0.179217	0	0.124008	0	-93.8518	434.009	-3.5045	0.824558	0.006	-0.268806	0	0.141419	0
0.65	75.3307	187.311	7.24097	0.316401	0.006	-0.177879	0	0.0441278	0	-100.192	469.699	3.26409	0.82758	0.006	-0.270493	0	-0.0519093	0
0.66	49.3622	127.658	5.90698	0.326588	0.006	-0.177194	0	-0.0469829	0	-102.117	503.65	7.6089	0.829216	0.006	-0.271678	0	-0.344307	0
0.67	27.6604	82.1323	3.49579	0.337944	0.006	-0.176435	0	0.0103814	0	-102.914	538.939	10.0684	0.830122	0.006	-0.27235	0	-0.584369	0
0.68	14.0016	48.1813	1.54785	0.34959	0.006	-0.173293	0	0.0954665	0	-101.139	576.48	11.9754	0.830544	0.006	-0.272951	0	-0.726955	0
0.69	4.33055	16.0719	0.497356	0.365665	0.0036	-0.166543	0	0.065646	0	-97.7491	613.948	13.4584	0.831532	0.006	-0.273709	0	-0.784503	0
0.7	0	0	0	0.392531	0	-0.165229	0	0	0	-94.3559	646.481	14.9783	0.833482	0.006	-0.274696	0	-0.73746	0
0.71	0	0	0	0.420499	0	-0.165572	0	0	0	-90.8911	669.278	16.8451	0.835904	0.006	-0.275792	0	-0.588545	0
0.72	0	0	0	0.448466	0	-0.165914	0	0	0	-86.869	681.912	18.8906	0.838334	0.006	-0.276916	0	-0.387471	0
0.73	0	0	0	0.476434	0	-0.166257	0	0	0	-82.3407	685.745	21.3277	0.840656	0.006	-0.2782	0	-0.188683	0
0.74	0	0	0	0.504402	0	-0.166599	0	0	0	-76.8496	682.262	23.9483	0.842911	0.006	-0.279614	0	-0.0148849	0
0.75	0	0	0	0.53237	0	-0.166941	0	0	0	-70.8614	674.133	26.1534	0.845552	0.006	-0.281032	0	0.1503	0
0.76	0	0	0	0.560338	0	-0.167284	0	0	0	-65.3405	662.252	27.0096	0.848797	0.006	-0.282294	0	0.26592	0
0.77	0	0	0	0.588306	0	-0.167626	0	0	0	-60.3168	646.419	26.1618	0.852405	0.006	-0.28337	0	0.358045	0
0.78	0	0	0	0.616274	0	-0.167969	0	0	0	-55.4467	627.007	24.0958	0.856129	0.006	-0.284297	0	0.499232	0
0.79	0	0	0	0.644241	0	-0.168311	0	0	0	-50.2672	604.995	21.4166	0.85996	0.006	-0.285088	0	0.658426	0
0.8	0	0	0	0.672209	0	-0.168654	0	0	0	-44.4921	581.436	18.9102	0.863911	0.006	-0.285948	0	0.84754	0
0.81	0	0	0	0.700177	0	-0.168996	0	0	0	-38.4914	557.156	16.9063	0.86816	0.006	-0.286814	0	1.01216	0
0.82	0	0	0	0.728145	0	-0.169339	0	0	0	-33.1672	533.154	15.3906	0.872835	0.006	-0.287702	0	1.19897	0
0.83	0	0	0	0.756113	0	-0.169681	0	0	0	-28.9951	510.559	14.3765	0.877896	0.006	-0.288782	0	1.40487	0
0.84	0	0	0	0.784081	0	-0.170024	0	0	0	-25.9331	491.197	13.6884	0.883307	0.006	-0.289889	0	1.64956	0
0.85	0	0	0	0.812049	0	-0.170366	0	0	0	-23.7819	476.429	13.0637	0.888818	0.006	-0.290739	0	1.89346	0
0.86	0	0	0	0.840016	0	-0.170708	0	0	0	-21.9517	466.474	12.3754	0.893876	0.006	-0.291216	0	2.11469	0
0.87	0	0	0	0.867984	0	-0.171051	0	0	0	-19.6443	461.276	11.7093	0.898097	0.006	-0.291526	0	2.28761	0
0.88	0	0	0	0.895952	0	-0.171394	0	0	0	-17.2382	459.789	10.6813	0.901598	0.006	-0.291527	0	2.47829	0
0.89	0	0	0	0.92392	0	-0.171736	0	0	0	-15.4201	460.359	9.76577	0.905006	0.006	-0.291503	0	2.70322	0
0.9	0	0	0	0.951888	0	-0.172078	0	0	0	-13.6052	462.489	9.57237	0.908617	0.006	-0.291485	0	2.86152	0
0.91	0	0	0	0.979856	0	-0.172421	0	0	0	-11.4183	466.399	10.1171	0.912088	0.006	-0.291666	0	2.97892	0
0.92	0	0	0	1.00782	0	-0.172763	0	0	0	-8.94122	472.954	11.0193	0.915224	0.006	-0.291874	0	3.11997	0
0.93	0	0	0	1.03579	0	-0.173106	0	0	0	-6.22519	482.362	12.025	0.918088	0.006	-0.292082	0	3.27541	0
